# xmcd
#
# Track frame offsets:
#	150
#	10162
#	22893
#	33749
#	46030
#	67011
#	80529
#	93579
#	107210
#	118778
#	138878
#	152284
#	178140
#	191808
#
# Disc length: 2780 seconds
#
# Revision: 0
# Processed by: cddbd v1.5.2PL0 Copyright (c) Steve Scherf et al.
# Submitted via: EasyCDDAExtractor 16.0.6.1
#
DISCID=b40ada0e
DTITLE=Blues Greats
DYEAR=1900
DGENRE=Blues
TTITLE0=John Lee Hokker - Dimples
TTITLE1=Jimmy Red - Shame shame shame
TTITLE2=Muddy Waters - Key to the highway
TTITLE3=Howlin' Wolf - Streamline woman
TTITLE4=B. B. King (feat Pat Metheny and Dave Brubeck) - The thrill is gone
TTITLE5=Albert King - Bad luck blues
TTITLE6=Elmore James - Dust my broom
TTITLE7=Slim Harpo - I'm a king bee
TTITLE8=Sonny Boy Williamson - Don't star me talking
TTITLE9=Lightnin' Hopkins - Glory be
TTITLE10=Robert Johnson - Sweet home chicago
TTITLE11=Son House - Preachin' blues
TTITLE12=Leadbelly - Where did you sleep last night?
TTITLE13=Bo Diddley - Mona
EXTD=
EXTT0=
EXTT1=
EXTT2=
EXTT3=
EXTT4=
EXTT5=
EXTT6=
EXTT7=
EXTT8=
EXTT9=
EXTT10=
EXTT11=
EXTT12=
EXTT13=
PLAYORDER=
